<svg width="38" height="44" viewBox="0 0 38 44" fill="none" xmlns="http://www.w3.org/2000/svg">
<path d="M19 22C21.8795 22 24.641 20.8411 26.6772 18.7782C28.7133 16.7153 29.8571 13.9174 29.8571 11C29.8571 8.08262 28.7133 5.28473 26.6772 3.22183C24.641 1.15893 21.8795 0 19 0C16.1205 0 13.3589 1.15893 11.3228 3.22183C9.28673 5.28473 8.14286 8.08262 8.14286 11C8.14286 13.9174 9.28673 16.7153 11.3228 18.7782C13.3589 20.8411 16.1205 22 19 22ZM15.1237 26.125C6.76875 26.125 0 32.9828 0 41.4477C0 42.857 1.12813 44 2.5192 44H35.4808C36.8719 44 38 42.857 38 41.4477C38 32.9828 31.2312 26.125 22.8763 26.125H15.1237Z" fill="url(#paint0_linear_674_592)"/>
<defs>
<linearGradient id="paint0_linear_674_592" x1="2.71755e-06" y1="50.209" x2="7.14433" y2="17.2805" gradientUnits="userSpaceOnUse">
<stop offset="0.0605244"/>
<stop offset="1" stop-color="#060A23"/>
</linearGradient>
</defs>
</svg>
